<svg xmlns="http://www.w3.org/2000/svg" viewBox="0 0 100 100">
  <!-- Shoe upper -->
  <path d="M38 30 Q43 15, 52 27 Q58 35, 68 32 Q76 30, 79 40 Q82 48, 76 52 Q63 57, 48 54 Q33 51, 25 45 Q18 40, 22 33 Q26 27, 34 28 Q36 28, 38 30Z" 
        fill="#000000"/>
  <!-- Sole swoosh -->
  <path d="M18 62 Q10 59, 14 54 Q18 49, 30 47 Q42 45, 55 49 Q68 53, 78 51 Q86 49, 89 54 Q92 58, 86 63 Q80 67, 68 65 Q52 62, 38 64 Q25 66, 19 64Z" 
        fill="#000000"/>
  <!-- Swoosh accent -->
  <path d="M12 72 Q30 68, 52 70 Q74 72, 92 66" 
        stroke="#000000" stroke-width="3" fill="none" stroke-linecap="round"/>
</svg>
